<svg width="263" height="263" viewBox="0 0 263 263" fill="none" xmlns="http://www.w3.org/2000/svg">
<path d="M108.219 0C48.4659 0 0 48.4529 0 108.19L0 263H154.781C214.534 263 263 214.547 263 154.81V0L108.219 0ZM154.216 170.961C199.719 249.741 63.2103 249.741 108.713 170.961C63.2808 249.741 -5.00885 131.535 85.997 131.535C-5.00885 131.535 63.2808 13.3299 108.713 92.1099C63.2103 13.3299 199.719 13.3299 154.216 92.1099C199.719 13.4004 268.009 131.535 177.003 131.535C268.009 131.535 199.719 249.741 154.216 170.961Z" fill="#252627"/>
</svg>
