<svg width="263" height="263" viewBox="0 0 263 263" fill="none" xmlns="http://www.w3.org/2000/svg">
<path d="M263 131.5V130.602C262.64 94.6132 233.298 65.6305 197.25 65.7503C196.95 65.7503 196.651 65.7503 196.352 65.7503H197.25V64.8521C196.891 28.8034 167.489 -0.119392 131.5 0.000370594C95.5113 -0.119392 66.1095 28.8633 65.7502 64.8521V65.7503C29.7016 65.6305 0.359658 94.6132 0.000369831 130.602V131.5C-0.119393 167.489 28.8632 196.891 64.852 197.25H65.7502C65.6304 233.299 94.613 262.641 130.602 263H131.5H132.398C168.387 262.641 197.37 233.299 197.25 197.25H198.148C234.197 196.891 263.119 167.489 263 131.5ZM65.7502 197.25H66.6484C66.349 197.25 66.0496 197.25 65.7502 197.25ZM171.082 171.082H91.9184V91.9185H171.142V171.082H171.082Z" fill="#252627"/>
</svg>
