<svg width="263" height="263" viewBox="0 0 263 263" fill="none" xmlns="http://www.w3.org/2000/svg">
<path d="M263 131.5L261.18 131.136C231.809 125.31 195.217 121.851 157.351 120.82C183.93 92.6629 207.778 63.7778 224.466 38.5337C199.222 55.2215 170.337 79.0699 142.18 105.649C141.088 66.9333 137.508 29.674 131.5 0C125.492 29.674 121.912 66.9333 120.82 105.649C92.6629 79.0699 63.7778 55.2215 38.5337 38.5337C55.2215 63.7778 79.0699 92.6629 105.649 120.82C66.9333 121.912 29.674 125.492 0 131.5C29.674 137.508 66.9333 141.088 105.649 142.18C79.6161 169.73 56.1924 198.009 39.5653 222.889L38.5337 224.466L40.1114 223.435C64.9915 206.747 93.2697 183.323 120.82 157.351C121.912 195.217 125.31 231.748 131.136 261.18L131.5 263L131.864 261.18C137.69 231.809 141.149 195.217 142.18 157.351C169.73 183.384 198.009 206.808 222.889 223.435L224.466 224.466L223.435 222.889C206.747 198.009 183.323 169.73 157.351 142.18C195.217 141.088 231.748 137.69 261.18 131.864L263 131.5Z" fill="#121212"/>
</svg>
