<svg width="263" height="263" viewBox="0 0 263 263" fill="none" xmlns="http://www.w3.org/2000/svg">
<path d="M65.7501 65.7503H66.6483C102.637 65.391 131.62 35.9892 131.5 0.000369832C95.5112 -0.119393 66.1094 28.8633 65.7501 64.8521V65.7503C29.7015 65.6305 0.359594 94.6132 0.000305176 130.602L0.000305176 131.5H0.898527C36.8873 131.081 65.8699 101.739 65.7501 65.7503C65.6303 101.739 94.613 131.081 130.602 131.5H131.5V130.602C131.081 94.6132 101.739 65.6305 65.7501 65.7503Z" fill="#252627"/>
<path d="M131.5 130.602V131.5H132.398C168.387 131.141 197.37 101.739 197.25 65.7502C197.13 101.739 226.113 131.081 262.101 131.5H263V130.602C262.64 94.6131 233.298 65.6305 197.25 65.7502C161.261 65.6305 131.919 94.6131 131.5 130.602Z" fill="#252627"/>
<path d="M196.352 65.7503H197.25V64.8521C196.891 28.8034 167.489 -0.119392 131.5 0.000370594C131.38 35.9892 160.363 65.3311 196.352 65.7503Z" fill="#252627"/>
<path d="M65.7502 197.25H66.6484C102.637 196.891 131.62 167.489 131.5 131.5C95.5113 131.38 66.1095 160.363 65.7502 196.352C65.331 160.363 35.9891 131.38 0.000369831 131.5C-0.119393 167.489 28.8632 196.891 64.852 197.25H65.7502C65.6304 233.299 94.613 262.641 130.602 263H131.5V262.102C131.081 226.113 101.739 197.13 65.7502 197.25Z" fill="#252627"/>
<path d="M197.25 196.352C196.891 160.363 167.489 131.38 131.5 131.5C131.38 167.489 160.363 196.891 196.352 197.25H197.25C161.261 197.13 131.919 226.113 131.5 262.102V263H132.398C168.387 262.641 197.37 233.299 197.25 197.25H198.148C234.137 196.891 263.119 167.489 263 131.5C227.011 131.38 197.669 160.363 197.25 196.352Z" fill="#252627"/>
</svg>
