<svg width="263" height="263" viewBox="0 0 263 263" fill="none" xmlns="http://www.w3.org/2000/svg">
<path d="M131.5 0C58.984 0 0 58.984 0 131.5C0 204.016 58.984 263 131.5 263C204.016 263 263 204.016 263 131.5C263 58.984 204.016 0 131.5 0ZM131.5 259.763C60.7969 259.763 3.23732 202.203 3.23732 131.5C3.23732 60.7969 60.7969 3.23732 131.5 3.23732C202.203 3.23732 259.763 60.7969 259.763 131.5C259.763 202.203 202.203 259.763 131.5 259.763Z" fill="#121212"/>
<path d="M131.5 25.0569C72.775 25.0569 25.0569 72.8397 25.0569 131.5C25.0569 190.16 72.775 237.943 131.5 237.943C190.225 237.943 237.943 190.225 237.943 131.5C237.943 72.775 190.225 25.0569 131.5 25.0569ZM131.5 234.706C74.5879 234.706 28.2942 188.412 28.2942 131.5C28.2942 74.5879 74.5879 28.2942 131.5 28.2942C188.412 28.2942 234.706 74.5879 234.706 131.5C234.706 188.412 188.412 234.706 131.5 234.706Z" fill="#121212"/>
<path d="M131.5 50.049C86.5659 50.049 50.049 86.5659 50.049 131.5C50.049 176.434 86.5659 212.951 131.5 212.951C176.434 212.951 212.951 176.434 212.951 131.5C212.951 86.5659 176.434 50.049 131.5 50.049ZM131.5 209.714C88.3788 209.714 53.2863 174.621 53.2863 131.5C53.2863 88.3788 88.3788 53.2863 131.5 53.2863C174.621 53.2863 209.714 88.3788 209.714 131.5C209.714 174.621 174.621 209.714 131.5 209.714Z" fill="#121212"/>
<path d="M131.5 75.0411C100.357 75.0411 75.0411 100.357 75.0411 131.5C75.0411 162.643 100.357 187.959 131.5 187.959C162.643 187.959 187.959 162.643 187.959 131.5C187.959 100.357 162.643 75.0411 131.5 75.0411ZM131.5 184.722C102.17 184.722 78.2785 160.83 78.2785 131.5C78.2785 102.17 102.17 78.2785 131.5 78.2785C160.83 78.2785 184.722 102.17 184.722 131.5C184.722 160.83 160.83 184.722 131.5 184.722Z" fill="#121212"/>
<path d="M131.5 100.098C114.213 100.098 100.098 114.213 100.098 131.5C100.098 148.787 114.213 162.902 131.5 162.902C148.787 162.902 162.902 148.787 162.902 131.5C162.902 114.213 148.787 100.098 131.5 100.098ZM131.5 159.665C115.961 159.665 103.335 147.039 103.335 131.5C103.335 115.961 115.961 103.335 131.5 103.335C147.039 103.335 159.665 115.961 159.665 131.5C159.665 147.039 147.039 159.665 131.5 159.665Z" fill="#121212"/>
</svg>
