<svg width="263" height="263" viewBox="0 0 263 263" fill="none" xmlns="http://www.w3.org/2000/svg">
<path d="M233.581 103.221C220.477 103.221 162.491 111.741 140.214 123.537C152.205 101.844 160.919 42.599 160.919 29.4261C160.919 13.1729 147.749 0 131.5 0C115.251 0 102.081 13.1729 102.081 29.4261C102.081 42.6646 110.795 101.91 122.786 123.537C100.509 111.741 42.5229 103.221 29.4188 103.221C13.1697 103.221 0 116.394 0 132.647C0 148.9 13.1697 162.073 29.4188 162.073C42.1953 162.073 97.9534 153.946 121.213 142.543C110.009 166.267 102.081 220.925 102.081 233.574C102.081 249.827 115.251 263 131.5 263C147.749 263 160.919 249.827 160.919 233.574C160.919 220.925 152.925 166.267 141.787 142.543C165.047 153.946 220.805 162.073 233.581 162.073C249.83 162.073 263 148.9 263 132.647C263 116.394 249.83 103.221 233.581 103.221Z" fill="#252627"/>
</svg>
